<?xml version="1.0" encoding="UTF-8"?>
<svg version="1.1" xmlns="http://www.w3.org/2000/svg" width="1095" height="282">
<path d="M0 0 C361.35 0 722.7 0 1095 0 C1095 93.06 1095 186.12 1095 282 C733.65 282 372.3 282 0 282 C0 188.94 0 95.88 0 0 Z " fill="#FDFDFD" transform="translate(0,0)"/>
<path d="M0 0 C2.36746037 0.90000502 4.67728678 1.88378554 6.99121094 2.91357422 C7.82724854 3.27781494 8.66328613 3.64205566 9.5246582 4.01733398 C40.94447768 17.90219511 64.64876204 41.00985521 77.54150391 72.92431641 C89.00208238 102.77227153 86.95999511 135.04380065 75.17871094 164.41357422 C69.40170668 177.26777807 61.80619136 188.3776821 51.86621094 198.35107422 C51.05023438 199.17865234 50.23425781 200.00623047 49.39355469 200.85888672 C46.8974594 203.32026043 44.3459252 205.69273829 41.74121094 208.03857422 C40.46890625 209.1890625 40.46890625 209.1890625 39.17089844 210.36279297 C36.86621094 212.35107422 36.86621094 212.35107422 33.86621094 214.35107422 C33.53340575 216.89276338 33.35404555 219.24068415 33.30371094 221.78857422 C33.12026898 228.96998716 33.12026898 228.96998716 30.86621094 232.35107422 C28.5670023 232.72580433 28.5670023 232.72580433 25.63465881 232.72529602 C24.52557663 232.73231033 23.41649445 232.73932465 22.27380371 232.74655151 C21.05140991 232.73890778 19.82901611 232.73126404 18.56958008 232.72338867 C17.28663559 232.72703934 16.0036911 232.73069 14.68186951 232.73445129 C11.15700604 232.7438766 7.63241945 232.73442085 4.10757756 232.72111917 C0.42274626 232.70982238 -3.26207104 232.71391086 -6.94691467 232.71586609 C-13.13677506 232.71674974 -19.32652608 232.70565482 -25.51635742 232.68725586 C-32.67592588 232.66609644 -39.83533396 232.66257593 -46.99492735 232.66881782 C-53.87630963 232.67451039 -60.75763535 232.66886648 -67.63900948 232.65764427 C-70.56997281 232.65299591 -73.50090158 232.65212547 -76.4318676 232.65423012 C-80.52391861 232.65646153 -84.61574449 232.64201177 -88.70776367 232.62573242 C-89.92813324 232.62820984 -91.14850281 232.63068726 -92.40585327 232.63323975 C-94.07370628 232.62261253 -94.07370628 232.62261253 -95.7752533 232.61177063 C-96.74330367 232.60971776 -97.71135405 232.60766489 -98.70873928 232.60554981 C-101.13378906 232.35107422 -101.13378906 232.35107422 -104.13378906 230.35107422 C-104.35486694 227.56254531 -104.41486442 225.00454241 -104.32128906 222.22607422 C-104.30098633 221.09492188 -104.30098633 221.09492188 -104.28027344 219.94091797 C-104.24488891 218.07733295 -104.19108073 216.21411444 -104.13378906 214.35107422 C-104.97876953 213.96628906 -104.97876953 213.96628906 -105.84082031 213.57373047 C-128.985157 201.23271278 -144.85738888 173.92269713 -152.44970703 149.69189453 C-160.99852778 120.43918454 -157.54450592 86.48368691 -143.44628906 59.53857422 C-132.18861541 39.15815935 -115.5648094 21.64568757 -95.13378906 10.35107422 C-94.47378906 10.35107422 -93.81378906 10.35107422 -93.13378906 10.35107422 C-93.04097656 9.48482422 -93.04097656 9.48482422 -92.94628906 8.60107422 C-91.61410962 4.91196191 -88.55560893 3.06198415 -85.13378906 1.35107422 C-74.98860876 0.78075057 -65.00501943 1.25238956 -54.94628906 2.66357422 C-54.08672607 2.78120117 -53.22716309 2.89882813 -52.34155273 3.02001953 C-43.07973475 4.4342032 -35.31080744 8.12978123 -26.89160156 12.14404297 C-24.33015498 13.48472588 -24.33015498 13.48472588 -22.13378906 13.35107422 C-20.61881447 11.62844867 -19.17059606 9.84671907 -17.75878906 8.03857422 C-12.50973093 1.323642 -9.07659427 -2.76036471 0 0 Z " fill="#631877" transform="translate(184.1337890625,24.64892578125)"/>
<path d="M0 0 C361.35 0 722.7 0 1095 0 C1095 93.06 1095 186.12 1095 282 C733.65 282 372.3 282 0 282 C0 188.94 0 95.88 0 0 Z M52 45 C50.79923828 46.07507812 50.79923828 46.07507812 49.57421875 47.171875 C33.3688309 62.48495907 21.85234891 83.62404762 16 105 C15.69578125 106.09054688 15.3915625 107.18109375 15.078125 108.3046875 C5.93071411 142.90951547 13.13832169 178.98697846 30.64794922 209.56738281 C33.95712777 215.13790417 37.6982218 220.14972549 42 225 C42.82113281 225.95261719 43.64226563 226.90523437 44.48828125 227.88671875 C58.25217595 243.60060405 75.37581474 256.49332741 95 264 C96.06476563 264.41636719 97.12953125 264.83273437 98.2265625 265.26171875 C119.55292047 272.99775056 141.10466047 273.58929236 163.52649933 273.50146749 C167.76756146 273.48937653 172.00857672 273.50082711 176.24963909 273.50910914 C183.66229798 273.52041373 191.07483387 273.51704329 198.48748779 273.5037384 C209.51039611 273.48400852 220.53321533 273.48739205 231.55613422 273.495239 C250.10737722 273.50775886 268.65856923 273.50148091 287.20980644 273.48405075 C305.57651683 273.46679798 323.94320431 273.457011 342.30992317 273.45738602 C344.02623216 273.45740895 344.02623216 273.45740895 345.77721405 273.45743235 C350.42222888 273.45751418 355.0672437 273.4576454 359.71225852 273.45784398 C403.24863884 273.45965445 446.78498429 273.43979102 490.32135252 273.40898465 C528.98661964 273.38172593 567.65186202 273.36926271 606.31713867 273.37060547 C608.80094814 273.37068629 611.28475761 273.37076701 613.76856708 273.37084763 C615.61050773 273.37090868 615.61050773 273.37090868 617.4896593 273.37097096 C623.67127767 273.37117256 629.85289605 273.37135373 636.03451443 273.37151146 C637.86389724 273.3715616 637.86389724 273.3715616 639.73023729 273.37161275 C672.06153778 273.37234325 704.39283517 273.36326438 736.72413307 273.35085833 C738.44942046 273.35019752 738.44942046 273.35019752 740.20956213 273.34952335 C744.83451013 273.34774695 749.45945813 273.34597014 754.08440611 273.34414144 C770.16393103 273.33782618 786.2434535 273.33480353 802.32297958 273.33391846 C823.04044836 273.33272373 843.75789674 273.32472373 864.47535681 273.30505554 C875.42794557 273.29483667 886.3805044 273.29000311 897.33309768 273.29304791 C904.65215865 273.29451923 911.97119055 273.28869102 919.2902422 273.27696029 C923.45787814 273.27047585 927.62545147 273.2670683 931.7930904 273.27248149 C935.59203593 273.27734399 939.39085685 273.27286247 943.18978669 273.26124526 C945.18370118 273.25746035 947.17762708 273.26333558 949.17153493 273.26972538 C987.30316993 273.09649317 1020.88472245 258.45957382 1048 232 C1073.23438574 206.45407863 1084.36347572 172.63074144 1084.38720703 137.3515625 C1084.27068072 119.44561394 1080.79061168 102.18186009 1073 86 C1072.5047583 84.97036133 1072.5047583 84.97036133 1071.99951172 83.91992188 C1055.41002638 49.90501744 1027.73970108 27.2892235 992.6875 14.125 C978.58762225 9.34258532 964.84472093 7.84903269 950.06500721 7.86577892 C948.64141616 7.86382389 947.21782565 7.86143424 945.79423597 7.85865095 C941.8787317 7.85226679 937.96324799 7.85208806 934.0477395 7.85292836 C929.7890508 7.85275855 925.53036939 7.84684888 921.27168435 7.8416875 C912.82331926 7.83236799 904.37495942 7.82844054 895.92658984 7.82616853 C885.8074503 7.82320475 875.6883177 7.81450627 865.56918181 7.80575425 C841.10985344 7.78491547 816.65052386 7.77444073 792.19118868 7.76562465 C780.61796853 7.76141711 769.04474891 7.75619525 757.4715292 7.75094012 C717.84830894 7.73304993 678.22508852 7.71805453 638.60186481 7.71061993 C636.11453512 7.71014517 633.62720542 7.70966928 631.13987572 7.70919226 C629.28965368 7.7088377 629.28965368 7.7088377 627.40205342 7.70847597 C621.15271985 7.70727479 614.90338629 7.70605933 608.65405273 7.70483398 C607.4138578 7.70459383 606.17366287 7.70435368 604.89588627 7.70410626 C564.69411465 7.69621495 524.49237254 7.67278656 484.2906138 7.64027804 C441.77872393 7.60596429 399.26685132 7.58626733 356.75494736 7.58297569 C352.08614011 7.58255815 347.41733286 7.58207859 342.74852562 7.58155251 C341.59894916 7.58142931 340.44937269 7.58130612 339.26496058 7.5811792 C320.78073012 7.57884906 302.296534 7.56319942 283.81231577 7.54271066 C265.22419556 7.52243399 246.63611649 7.51698407 228.04798726 7.52648129 C217.01226012 7.53168913 205.97667019 7.52585267 194.94096285 7.50394662 C187.55834064 7.4904027 180.17581249 7.49154717 172.79318926 7.50434858 C168.59385963 7.51122135 164.39479162 7.51199748 160.19548575 7.49478849 C118.41756536 7.33417673 83.44216425 16.58990707 52 45 Z " fill="#5F187E" transform="translate(0,0)"/>
<path d="M0 0 C40.92 0 81.84 0 124 0 C124 0.33 124 0.66 124 1 C123.12601562 1.14695313 122.25203125 1.29390625 121.3515625 1.4453125 C95.34323469 6.18896977 69.53133488 17.27257801 50.30859375 35.78125 C48.43227577 37.58454715 46.5541556 39.16467521 44.5 40.75 C26.42876084 56.14081613 13.32268659 82.33129922 8 105 C7.57267578 106.69962891 7.57267578 106.69962891 7.13671875 108.43359375 C-1.86186354 145.3235164 5.45381716 183.79533684 25 216 C27.80529605 220.17373315 30.82400858 224.10264776 34 228 C34.45922852 228.57137695 34.91845703 229.14275391 35.39160156 229.73144531 C41.92173797 237.8165841 48.62819841 244.75765375 57 251 C58.2375 251.97646484 58.2375 251.97646484 59.5 252.97265625 C81.57463305 269.89878495 106.65954928 277.97543777 134 281 C134 281.33 134 281.66 134 282 C89.78 282 45.56 282 0 282 C0 188.94 0 95.88 0 0 Z " fill="#FDFDFE" transform="translate(0,0)"/>
<path d="M0 0 C6.90610899 1.83497403 13.08558798 4.24241515 19.375 7.625 C20.19935547 8.06521484 21.02371094 8.50542969 21.87304688 8.95898438 C28.78015685 12.72895748 34.96384105 16.9275239 41 22 C41.91910156 22.75667969 42.83820313 23.51335938 43.78515625 24.29296875 C65.95555249 43.40752978 81.59455143 72.70413383 84 102 C85.44714091 134.73341471 78.1674044 167.26194281 55.6875 192.1875 C54.14279139 193.80880573 52.58081133 195.41387501 51 197 C50.18273437 197.82757813 49.36546875 198.65515625 48.5234375 199.5078125 C46.04185248 201.95866582 43.51658274 204.33961788 40.9375 206.6875 C39.68259766 207.83798828 39.68259766 207.83798828 38.40234375 209.01171875 C36.28495338 210.76416053 34.45691844 211.83687918 32 213 C31.99589111 212.44650879 31.99178223 211.89301758 31.98754883 211.32275391 C31.90891581 193.95390789 31.90891581 193.95390789 22.9375 179.625 C18.29447399 175.99312188 12.60001921 174.56322375 7 173 C7.88934426 166.39344262 7.88934426 166.39344262 8.5625 164 C9.46514819 159.87360826 9.67053116 154.9485282 8 151 C7.01 150.67 6.02 150.34 5 150 C5 149.34 5 148.68 5 148 C4.38125 147.855625 3.7625 147.71125 3.125 147.5625 C1 147 1 147 -1 146 C1.06842493 141.45799475 4.08944139 137.67708742 7.0625 133.6953125 C9.1250115 130.95032755 9.1250115 130.95032755 10.875 127.5 C14.53955197 123.18876239 19.88757579 122.6495494 25.24609375 121.53125 C27.15534537 121.16212119 27.15534537 121.16212119 28.0625 119.3125 C28.371875 118.549375 28.68125 117.78625 29 117 C29.53625 116.195625 30.0725 115.39125 30.625 114.5625 C32.70174075 109.18185351 32.58675119 103.70748889 32 98 C31.34 97.01 30.68 96.02 30 95 C30.45368277 90.54276573 32.08932208 86.26071388 33.4375 82 C33.65470703 81.30132812 33.87191406 80.60265625 34.09570312 79.8828125 C34.98350564 77.05677447 35.86752253 74.30663498 37.04370117 71.58422852 C38.68207934 67.15680117 38.64330511 62.61712703 38.875 57.9375 C38.9471875 56.94427734 39.019375 55.95105469 39.09375 54.92773438 C39.45907641 49.3421286 39.45907641 49.3421286 37.328125 44.3359375 C34.592917 42.76640539 33.00994789 42.55180823 29.875 42.6875 C29.00617188 42.71199219 28.13734375 42.73648438 27.2421875 42.76171875 C24.96553651 42.87131953 24.96553651 42.87131953 23 44 C21.00039988 44.039992 18.99952758 44.04346799 17 44 C16.76216797 42.47632812 16.76216797 42.47632812 16.51953125 40.921875 C14.29728751 27.48345048 9.56843787 16.52247677 2.671875 4.8359375 C1.73659177 3.24945239 0.82361274 1.64722548 0 0 Z " fill="#FDA401" transform="translate(185,26)"/>
<path d="M0 0 C41.25 0 82.5 0 125 0 C125 93.06 125 186.12 125 282 C80.78 282 36.56 282 -9 282 C-9 281.67 -9 281.34 -9 281 C-7.6903125 280.87625 -6.380625 280.7525 -5.03125 280.625 C24.65056612 277.43251908 50.97984232 265.89417145 74 247 C75.24523438 245.99453125 75.24523438 245.99453125 76.515625 244.96875 C81.17501075 241.05628868 85.15791773 236.7081254 89 232 C89.7734375 231.06414062 90.546875 230.12828125 91.34375 229.1640625 C111.59307933 204.11509697 122.1882196 173.34628128 122.3125 141.3125 C122.32083862 139.51389526 122.32083862 139.51389526 122.3293457 137.67895508 C122.23669941 126.11400554 120.81069857 114.80134267 117.8125 103.625 C117.49104004 102.42556763 117.49104004 102.42556763 117.16308594 101.2019043 C111.76466377 81.93900541 101.71051997 64.33956888 89 49 C88.33226562 48.17886719 87.66453125 47.35773437 86.9765625 46.51171875 C81.93185939 40.55073284 76.13491881 35.80008777 70 31 C69.27039062 30.39285156 68.54078125 29.78570313 67.7890625 29.16015625 C49.16811426 13.89651653 23.87008187 3.48557406 0 1 C0 0.67 0 0.34 0 0 Z " fill="#FDFDFD" transform="translate(970,0)"/>
<path d="M0 0 C0.86979461 2.22414609 1.72083184 4.45272592 2.5625 6.6875 C2.9327832 7.62625977 2.9327832 7.62625977 3.31054688 8.58398438 C4.72572493 12.39101267 5.64973801 15.18203488 4 19 C1.8828125 20.484375 1.8828125 20.484375 -0.875 21.75 C-12.73743129 27.78122317 -22.8004636 37.11125488 -29 49 C-29.33940233 51.84779769 -28.90328416 54.28443052 -28 57 C-25.70659561 59.75208526 -23.81742369 60.81715523 -20.328125 61.59765625 C-17.06501151 62.3875369 -14.76520184 63.06916396 -12 65 C-9.46710374 71.27125023 -8.54778271 78.24118478 -9 85 C-9.495 85.70125 -9.99 86.4025 -10.5 87.125 C-12.85677716 91.64215622 -12.63586858 96.01087729 -12 101 C-10.44577215 105.79818033 -7.99349166 109.85361263 -4 113 C-1.40084462 114.19027984 -1.40084462 114.19027984 1 115 C1.33 115.33 1.66 115.66 2 116 C3.546875 115.9071875 3.546875 115.9071875 5.125 115.8125 C7.03515625 116.0390625 7.03515625 116.0390625 9 117 C11.05666225 119.86955467 12.64725826 122.84877081 14.2890625 125.97265625 C16.40932317 129.72425903 18.86411231 132.09356751 22 135 C22 135.66 22 136.32 22 137 C20.88625 137.2475 19.7725 137.495 18.625 137.75 C14.97964288 138.60523984 14.97964288 138.60523984 13.625 141 C13.41875 141.66 13.2125 142.32 13 143 C12.67 143.66 12.34 144.32 12 145 C11.56573169 151.04143858 12.23974896 157.01302309 13 163 C12.443125 163.23074219 11.88625 163.46148437 11.3125 163.69921875 C3.11982829 167.20047879 -4.86486076 170.62323724 -9 179 C-9.76771382 182.30361216 -10.16355169 185.4786445 -10.31640625 188.86328125 C-10.37924805 190.19262695 -10.37924805 190.19262695 -10.44335938 191.54882812 C-10.48267578 192.46083984 -10.52199219 193.37285156 -10.5625 194.3125 C-10.62727539 195.70952148 -10.62727539 195.70952148 -10.69335938 197.13476562 C-10.79897225 199.42304454 -10.90107752 201.71142372 -11 204 C-33.58740494 193.0845839 -49.57970747 167.07889946 -57.74316406 144.19091797 C-67.83085982 114.09092518 -65.19245932 79.42751119 -51.26147461 51.0012207 C-43.47006727 36.10995105 -19.46909374 0 0 0 Z " fill="#FDA401" transform="translate(91,35)"/>
<path d="M0 0 C2.74770807 0.34272488 3.76201108 0.70418768 5.52734375 2.8984375 C12.8708759 15.79538869 17.8900587 27.95597695 18.7890625 42.91796875 C18.77713235 44.98787602 18.77713235 44.98787602 20 46 C25.30491971 45.85481272 29.99543834 44.70610056 35 43 C36.66626605 42.96345908 38.33386093 42.95806697 40 43 C40.6073712 56.33967127 38.63765264 68.83755141 33 81 C29.43538739 80.38892355 26.18860913 79.73924134 23 78 C21.48046875 75.4609375 21.48046875 75.4609375 20.1875 72.375 C16.35926463 64.16742084 10.86830451 58.52008982 3 54 C2.01 53.4225 1.02 52.845 0 52.25 C-5.71921916 50.01093209 -12.04829783 49.63591868 -18 51 C-20.23778896 53.27798877 -21.31152623 55.42481075 -22.64453125 58.31640625 C-25.08887433 63.1557829 -29.28813349 66.61581152 -34.08544922 69.06445312 C-37.98669869 70.31672218 -41.58680516 70.3166383 -45.66015625 70.34375 C-46.48704453 70.3583728 -47.3139328 70.37299561 -48.1658783 70.38806152 C-51.68961545 70.45010288 -55.21352294 70.48992726 -58.73754883 70.53173828 C-61.31610263 70.56550704 -63.89428983 70.61060101 -66.47265625 70.65625 C-67.26752945 70.6615271 -68.06240265 70.6668042 -68.88136292 70.67224121 C-74.27285678 70.71298797 -74.27285678 70.71298797 -79 73 C-79.33 73.825 -79.66 74.65 -80 75.5 C-81 78 -81 78 -82.875 79.3125 C-85 80 -85 80 -89 80 C-89.66 74.72 -90.32 69.44 -91 64 C-92.505625 63.401875 -94.01125 62.80375 -95.5625 62.1875 C-99.73675668 60.51898488 -103.87758419 58.7923547 -108 57 C-106.67236377 47.52399643 -98.15775449 40.65673492 -91 35 C-86.22744784 31.55570132 -81.20557685 29.06545583 -75.78515625 26.796875 C-74.01516016 26.13431474 -74.01516016 26.13431474 -73 25 C-73.31695742 19.189114 -74.75993215 14.68185766 -77.16015625 9.39453125 C-78.07927391 6.77397718 -78.06153126 4.75516932 -78 2 C-49.3970268 1.37548093 -49.3970268 1.37548093 -39 5 C-37.88625 5.37511719 -36.7725 5.75023437 -35.625 6.13671875 C-29.8785609 8.20674283 -24.70742133 10.44338197 -19.78125 14.08203125 C-17.29816101 15.36169334 -15.75705898 15.42972679 -13 15 C-10.835543 13.26099546 -10.835543 13.26099546 -9 10.875 C-8.319375 10.05902344 -7.63875 9.24304687 -6.9375 8.40234375 C-5.9784375 7.21318359 -5.9784375 7.21318359 -5 6 C-4.00118349 4.81150439 -3.001401 3.6238188 -2 2.4375 C-1.34 1.633125 -0.68 0.82875 0 0 Z " fill="#FCA301" transform="translate(177,32)"/>
<path d="M0 0 C8.22437697 -0.51325978 15.45326534 3.7818096 21.875 8.6875 C23.46484375 10.2421875 23.46484375 10.2421875 25 12 C25.57878906 12.64195313 26.15757812 13.28390625 26.75390625 13.9453125 C33.85574968 23.93073505 32.42385074 38.980559 30.59570312 50.56103516 C28.74897807 59.30331291 25.21424425 66.54401169 19 73 C18.50886719 73.54398437 18.01773438 74.08796875 17.51171875 74.6484375 C16.1875 76.0625 16.1875 76.0625 14 78 C13.34 78 12.68 78 12 78 C12 78.66 12 79.32 12 80 C7.71 80 3.42 80 -1 80 C-1 79.34 -1 78.68 -1 78 C-5.10444167 78.13867261 -9.2084704 78.28716103 -13.3125 78.4375 C-14.47974609 78.47681641 -15.64699219 78.51613281 -16.84960938 78.55664062 C-17.96787109 78.59853516 -19.08613281 78.64042969 -20.23828125 78.68359375 C-21.26993408 78.72025146 -22.30158691 78.75690918 -23.36450195 78.79467773 C-26.10748258 78.90161242 -26.10748258 78.90161242 -29 80 C-34.15876636 80.75135186 -38.93530414 81.17625097 -43.578125 78.53125 C-52.9838662 70.46918612 -59.15703044 59.76547945 -60.35180664 47.34179688 C-60.46217976 43.51157785 -60.44867202 39.70594492 -60.375 35.875 C-60.37371094 34.56273437 -60.37242188 33.25046875 -60.37109375 31.8984375 C-60.28168176 22.28168176 -60.28168176 22.28168176 -58 20 C-55.47851216 19.80280551 -53.05782428 19.72307292 -50.53515625 19.7265625 C-48.99673794 19.70624179 -47.45832655 19.6853905 -45.91992188 19.6640625 C-43.50441677 19.64164482 -41.08918765 19.62506546 -38.67358398 19.61914062 C-27.86470045 19.5744712 -18.71883486 19.03130091 -9.1875 13.3125 C-5.47937396 9.39248105 -2.4146765 4.829353 0 0 Z " fill="#FAA203" transform="translate(163,89)"/>
<path d="M0 0 C11.60220791 -0.42546884 20.2498073 0.23770406 29.10058594 8.18164062 C33.0860103 12.96805714 33.12449484 17.97699389 33.00683594 23.96289062 C32.21798521 31.87111917 28.70980229 38.87976078 22.69433594 44.09570312 C14.04688583 50.09570312 14.04688583 50.09570312 10.69433594 50.09570312 C17.40429705 65.40865906 25.82097746 78.57345597 35.97949219 91.80273438 C37.69433594 94.09570312 37.69433594 94.09570312 38.69433594 96.09570312 C35.90623373 97.60240032 33.11329636 99.09990116 30.31933594 100.59570312 C29.52527344 101.02496094 28.73121094 101.45421875 27.91308594 101.89648438 C27.15253906 102.30253906 26.39199219 102.70859375 25.60839844 103.12695312 C24.90666504 103.50400391 24.20493164 103.88105469 23.48193359 104.26953125 C21.69433594 105.09570312 21.69433594 105.09570312 19.69433594 105.09570312 C17.45180727 102.69479153 15.6099059 99.94830825 13.69433594 97.28320312 C13.11490234 96.47729736 12.53546875 95.6713916 11.93847656 94.84106445 C-8.30566406 66.03102439 -8.30566406 66.03102439 -8.30566406 53.09570312 C-9.62566406 53.09570312 -10.94566406 53.09570312 -12.30566406 53.09570312 C-12.34232178 53.64790527 -12.37897949 54.20010742 -12.41674805 54.76904297 C-13.05563189 62.57306048 -14.67382076 70.08633027 -16.36816406 77.72070312 C-16.65318405 79.02397607 -16.93769274 80.32736094 -17.22167969 81.63085938 C-17.91133422 84.78690556 -18.60780404 87.94146117 -19.30566406 91.09570312 C-26.56566406 91.09570312 -33.82566406 91.09570312 -41.30566406 91.09570312 C-39.84518206 80.00051074 -37.79751899 69.11635964 -35.55566406 58.15820312 C-34.83759133 54.62213396 -34.1221899 51.08552715 -33.40722656 47.54882812 C-33.22908417 46.66926956 -33.05094177 45.789711 -32.86740112 44.88349915 C-31.7164693 39.18444744 -30.60081167 33.47968263 -29.51660156 27.76757812 C-29.3797998 27.04884018 -29.24299805 26.33010223 -29.10205078 25.58958435 C-28.46469114 22.23671051 -27.83298919 18.88298591 -27.20898438 15.52758789 C-26.9856543 14.34994873 -26.76232422 13.17230957 -26.53222656 11.95898438 C-26.34225098 10.94102783 -26.15227539 9.92307129 -25.95654297 8.87426758 C-25.31445344 6.13322447 -24.42228166 3.67585152 -23.30566406 1.09570312 C-15.53926662 0.67377487 -7.77108629 0.32256097 0 0 Z " fill="#5E147D" transform="translate(376.3056640625,121.904296875)"/>
<path d="M0 0 C-0.9829591 15.48160586 -5.34597372 29.11252381 -12 43 C-10.85185534 41.89256252 -10.85185534 41.89256252 -9.46875 40.0390625 C-4.17058653 33.54250492 -0.02399685 30.70931021 8.2890625 29.73046875 C13.39093662 29.49378387 18.6977529 30.07041846 23 33 C26.81236842 37.53015004 27.64816514 41.28995982 27.5 47.0625 C27.49081543 47.8047583 27.48163086 48.5470166 27.47216797 49.31176758 C27.21465702 57.25453076 24.96479144 64.3677313 21.875 71.65234375 C20.59165114 76.56229897 20.790292 81.32509982 20.875 86.375 C20.88402344 87.39722656 20.89304687 88.41945313 20.90234375 89.47265625 C20.92579437 91.9818724 20.96166164 94.49096716 21 97 C14.07 97 7.14 97 0 97 C-2.67330811 86.30676756 -0.52330533 77.03970186 2.80859375 66.84765625 C4.38433476 61.95763268 5.14043447 57.26867504 5.0625 52.125 C5.05347656 51.34382813 5.04445313 50.56265625 5.03515625 49.7578125 C5.02355469 49.17773438 5.01195312 48.59765625 5 48 C2.75775342 47.41036322 2.75775342 47.41036322 0 48 C-13.22937962 59.82199881 -14.79675463 80.62028433 -18 97 C-24.93 97 -31.86 97 -39 97 C-38.36784203 86.6416992 -36.27252561 76.69084851 -34.18359375 66.55078125 C-33.80336166 64.68330732 -33.42365527 62.81572629 -33.04444885 60.94804382 C-32.05178838 56.06611097 -31.05205774 51.18565291 -30.05078125 46.30548096 C-29.02757579 41.31195724 -28.01115538 36.31705316 -26.99414062 31.32226562 C-25.00268245 21.54682451 -23.00374243 11.77292997 -21 2 C-18.81347261 1.66034526 -16.62571975 1.32857523 -14.4375 1 C-12.61025391 0.7215625 -12.61025391 0.7215625 -10.74609375 0.4375 C-7.12372152 0.01444923 -3.64287954 -0.07501425 0 0 Z " fill="#5E157D" transform="translate(452,116)"/>
<path d="M0 0 C4.11586845 1.52319541 8.63418851 1.50247168 12.984375 1.734375 C12.10867047 9.09029305 11.16781511 16.2309686 9.359375 23.421875 C8.02644977 29.37923469 7.65932045 35.09240399 7.609375 41.171875 C7.59567871 42.01258545 7.58198242 42.8532959 7.56787109 43.71948242 C7.60814389 49.17753485 8.63827195 52.82493713 10.984375 57.734375 C10.984375 58.724375 10.984375 59.714375 10.984375 60.734375 C8.55124128 61.76688562 6.11380608 62.78557021 3.671875 63.796875 C2.98158203 64.09142578 2.29128906 64.38597656 1.58007812 64.68945312 C-3.67578125 66.84765625 -3.67578125 66.84765625 -7.015625 65.734375 C-10.06862871 60.21548368 -10.65167161 54.97178306 -11.015625 48.734375 C-11.54349609 49.60449219 -11.54349609 49.60449219 -12.08203125 50.4921875 C-16.20495516 57.01566502 -20.72374777 62.69032758 -28.015625 65.734375 C-33.89381011 66.57101133 -38.85561563 65.75249369 -44.015625 62.734375 C-49.34552843 57.87114514 -51.71669557 53.15815972 -52.3515625 45.88671875 C-52.65847189 31.62892247 -49.80522709 18.84304014 -40.30859375 7.73828125 C-30.08569868 -2.26939498 -13.1689876 -6.1766048 0 0 Z " fill="#5E147D" transform="translate(823.015625,148.265625)"/>
<path d="M0 0 C1 1 1 1 1.12025452 3.92958069 C1.11803391 5.24196213 1.11581329 6.55434357 1.11352539 7.90649414 C1.11367142 8.62840439 1.11381744 9.35031464 1.1139679 10.09410095 C1.11326869 12.49114947 1.10547595 14.88812123 1.09765625 17.28515625 C1.0957921 18.94282489 1.09436818 20.60049407 1.09336853 22.25816345 C1.08954312 26.62954214 1.07971265 31.00088781 1.06866455 35.37225342 C1.05665641 40.61267667 1.0520483 45.85311094 1.04621124 51.09354401 C1.0365009 59.06238566 1.01734452 67.03115482 1 75 C-17.81 75 -36.62 75 -56 75 C-56.12375 69.864375 -56.2475 64.72875 -56.375 59.4375 C-56.42962402 57.83060303 -56.48424805 56.22370605 -56.54052734 54.56811523 C-56.67828114 42.78424111 -56.67828114 42.78424111 -53.35546875 38.66015625 C-50.51597162 36.10452497 -47.50050965 34.39761927 -43.9375 33 C-42.93589844 32.5875 -41.93429688 32.175 -40.90234375 31.75 C-35.83682069 30.44100885 -31.96608537 32.31515358 -27.1875 34.0625 C-22.16682174 35.78157031 -18.27016707 36.40539747 -13 36 C-13 34.35 -13 32.7 -13 31 C-13.78503906 30.82984375 -14.57007813 30.6596875 -15.37890625 30.484375 C-27.72799192 27.63575156 -27.72799192 27.63575156 -32 24 C-34.12654762 19.27269204 -34.94081973 14.6570476 -35.125 9.5 C-34 7 -34 7 -31.1875 5.3125 C-21.10465547 1.79909644 -10.68514366 -0.36845323 0 0 Z " fill="#FBA203" transform="translate(144,174)"/>
<path d="M0 0 C17.35363636 0 17.35363636 0 23.6875 1.8125 C24.34943359 1.97814453 25.01136719 2.14378906 25.69335938 2.31445312 C29.32033883 3.28043258 32.38152272 4.24195921 35 7 C35.43719194 10.06650122 34.63915672 12.98886169 34 16 C33.85691406 16.81984375 33.71382812 17.6396875 33.56640625 18.484375 C32.97727642 20.97090917 32.37656799 22.84322735 31 25 C28.14181634 26.72888095 25.25275742 27.35154032 22 28 C20.47811546 28.39177226 18.95718934 28.78729711 17.4375 29.1875 C16.303125 29.455625 15.16875 29.72375 14 30 C13.505 32.475 13.505 32.475 13 35 C19.18618164 34.78741644 24.66414294 34.39961669 30.375 31.875 C35.39321115 29.68900659 38.04518904 29.92360458 43.1875 31.796875 C48.72544147 34.01933835 52.79282004 36.59706316 56.11669922 41.72167969 C57.33692853 44.86904838 57.22387293 47.58299476 57.1953125 50.953125 C57.19031738 52.16129883 57.18532227 53.36947266 57.18017578 54.61425781 C57.16196777 56.14405273 57.14375977 57.67384766 57.125 59.25 C57.08375 64.1175 57.0425 68.985 57 74 C38.19 74 19.38 74 0 74 C0 49.58 0 25.16 0 0 Z " fill="#FCA301" transform="translate(152,175)"/>
<path d="M0 0 C2 0.8125 2 0.8125 3.0859375 2.50390625 C4.16981406 5.24138937 4.41551268 7.62967752 4.625 10.5625 C4.69976563 11.54734375 4.77453125 12.5321875 4.8515625 13.546875 C4.92503906 14.66835937 4.92503906 14.66835937 5 15.8125 C5.52787109 14.94238281 5.52787109 14.94238281 6.06640625 14.0546875 C9.86230984 8.04863639 13.75225874 2.1340195 20.8125 -0.0625 C21.864375 -0.10375 22.91625 -0.145 24 -0.1875 C25.16402344 -0.26097656 25.16402344 -0.26097656 26.3515625 -0.3359375 C32.06353196 -0.56027467 36.02864489 -0.07088596 41 2.8125 C46.23288317 8.45850553 46.33532867 12.40773222 46.2890625 19.94140625 C45.78464393 26.69652516 43.57205096 32.88566141 41.06640625 39.14453125 C37.80931476 48.04309222 38.81333863 57.47943135 39 66.8125 C32.07 66.8125 25.14 66.8125 18 66.8125 C17.46870111 54.50407579 17.95983272 44.66671215 21.86572266 32.9699707 C23.62060934 27.66203804 24.30963168 23.41167282 24 17.8125 C21.1728006 17.75595601 19.57142294 17.77254827 17 18.8125 C14.44815489 21.50844931 12.74683901 24.55309194 11 27.8125 C10.63003906 28.4725 10.26007812 29.1325 9.87890625 29.8125 C4.26965322 40.98735429 2.68844272 54.57129029 1 66.8125 C-6.26 66.8125 -13.52 66.8125 -21 66.8125 C-20.4946875 64.33878906 -19.989375 61.86507812 -19.46875 59.31640625 C-18.97835748 56.85776604 -18.49357519 54.39807954 -18.00927734 51.93823242 C-17.67557469 50.25868106 -17.33625839 48.58023308 -16.99072266 46.90307617 C-15.18349677 38.11194967 -13.68756952 29.52542915 -13.65625 20.52734375 C-13.65274536 19.85079239 -13.64924072 19.17424103 -13.64562988 18.47718811 C-13.72988613 13.91446238 -14.60608274 10.11145489 -16 5.8125 C-15.15695312 5.46316406 -14.31390625 5.11382812 -13.4453125 4.75390625 C-12.34960938 4.29886719 -11.25390625 3.84382812 -10.125 3.375 C-9.03445313 2.92253906 -7.94390625 2.47007812 -6.8203125 2.00390625 C-1.69948013 -0.15932626 -1.69948013 -0.15932626 0 0 Z " fill="#5E147D" transform="translate(864,146.1875)"/>
<path d="M0 0 C3.75718808 3.11766671 6.54146699 6.16349346 7.3359375 11.078125 C7.4658385 18.30062049 5.41335901 23.10396919 0.8125 28.625 C-7.50915273 35.65217341 -17.05813716 41.20434336 -28.3125 41.25 C-29.199375 41.1675 -30.08625 41.085 -31 41 C-30.34 43.97 -29.68 46.94 -29 50 C-23.45796667 50.36946889 -18.98261424 49.28845065 -13.66796875 47.734375 C-10.44133986 46.84622532 -7.32135683 46.36903965 -4 46 C-3.32739649 47.76858691 -2.66211605 49.53996016 -2 51.3125 C-1.62875 52.29863281 -1.2575 53.28476563 -0.875 54.30078125 C0 57 0 57 0 60 C-2.91583585 60.98165279 -5.8328088 61.95988301 -8.75 62.9375 C-9.575 63.21529297 -10.4 63.49308594 -11.25 63.77929688 C-12.04921875 64.04677734 -12.8484375 64.31425781 -13.671875 64.58984375 C-14.4050293 64.83597412 -15.13818359 65.08210449 -15.89355469 65.33569336 C-24.14588263 67.9382182 -33.44530864 68.62468113 -41.5 65.0625 C-47.39945599 61.67055578 -50.87536233 56.37391301 -53 50 C-53.97881623 35.39798732 -52.20114364 21.96148674 -43 10 C-32.15535549 -1.8063394 -15.11620039 -7.80590676 0 0 Z " fill="#5F157D" transform="translate(648,148)"/>
<path d="M0 0 C2.56386521 3.72925848 2.15710739 7.51346419 1.52734375 11.80859375 C-0.34540194 19.59089252 -8.58383988 27.48863742 -15 32 C-14.25489185 35.64391528 -12.8169819 38.81467435 -11.27734375 42.19140625 C-10.73916016 43.38314453 -10.20097656 44.57488281 -9.64648438 45.80273438 C-8.79031973 47.68866047 -7.93236678 49.57374095 -7.07202148 51.45776367 C-6.23982578 53.28346278 -5.41473142 55.11239361 -4.58984375 56.94140625 C-4.09347412 58.03138916 -3.59710449 59.12137207 -3.08569336 60.24438477 C-2 63 -2 63 -2 66 C-9.26 66 -16.52 66 -24 66 C-26.31 59.73 -28.62 53.46 -31 47 C-32.8975 49.206875 -34.795 51.41375 -36.75 53.6875 C-37.34006836 54.37287842 -37.93013672 55.05825684 -38.53808594 55.7644043 C-39.01536133 56.32039307 -39.49263672 56.87638184 -39.984375 57.44921875 C-40.51450195 58.05209717 -41.04462891 58.65497559 -41.59082031 59.27612305 C-43.17345614 61.11190168 -43.17345614 61.11190168 -44.65625 63.9375 C-48.68593218 67.48362031 -53.60310679 66.5152564 -58.75 66.3125 C-59.82894531 66.28994141 -60.90789063 66.26738281 -62.01953125 66.24414062 C-64.6810935 66.1852565 -67.33984228 66.10307001 -70 66 C-68.21580086 62.19397814 -65.94681957 59.57881458 -63.0625 56.5 C-62.0715355 55.43496941 -61.08065249 54.36986299 -60.08984375 53.3046875 C-59.58050293 52.76038086 -59.07116211 52.21607422 -58.54638672 51.65527344 C-56.0581177 48.99179634 -53.59096408 46.30911196 -51.125 43.625 C-50.26132812 42.68914062 -49.39765625 41.75328125 -48.5078125 40.7890625 C-47.68023438 39.86867187 -46.85265625 38.94828125 -46 38 C-45.5162793 37.51370117 -45.03255859 37.02740234 -44.53417969 36.52636719 C-42.89265329 34.85783628 -42.89265329 34.85783628 -41 32 C-41.31097746 27.5463723 -42.68634294 24.16915887 -44.72265625 20.234375 C-45.26083984 19.17992187 -45.79902344 18.12546875 -46.35351562 17.0390625 C-46.91748047 15.95367187 -47.48144531 14.86828125 -48.0625 13.75 C-49.18185035 11.57990874 -50.29791522 9.40811858 -51.41015625 7.234375 C-51.90652588 6.27756836 -52.40289551 5.32076172 -52.91430664 4.33496094 C-54 2 -54 2 -54 0 C-46.74 0 -39.48 0 -32 0 C-30.845 2.59875 -29.69 5.1975 -28.5 7.875 C-28.13455078 8.69210449 -27.76910156 9.50920898 -27.39257812 10.35107422 C-27.10833984 10.9957666 -26.82410156 11.64045898 -26.53125 12.3046875 C-26.23798828 12.96452637 -25.94472656 13.62436523 -25.64257812 14.30419922 C-25 16 -25 16 -25 18 C-24.34 18 -23.68 18 -23 18 C-22.690625 17.38125 -22.38125 16.7625 -22.0625 16.125 C-21.375 14.75 -20.6875 13.375 -20 12 C-19.77532169 10.46331135 -19.59203195 8.92031946 -19.4375 7.375 C-19.35371094 6.55773437 -19.26992188 5.74046875 -19.18359375 4.8984375 C-19.09271484 3.95871094 -19.09271484 3.95871094 -19 3 C-17.41701974 2.5196682 -15.83360022 2.04078388 -14.25 1.5625 C-13.36828125 1.29566406 -12.4865625 1.02882812 -11.578125 0.75390625 C-3.98250272 -1.46723784 -3.98250272 -1.46723784 0 0 Z " fill="#5D147C" transform="translate(588,147)"/>
<path d="M0 0 C3.31263675 2.0541241 5.88302839 4.71280903 7.7890625 8.109375 C8.44921875 11.33984375 8.44921875 11.33984375 8.7890625 14.109375 C6.68734383 14.9488632 4.58259625 15.78077156 2.4765625 16.609375 C1.30480469 17.0734375 0.13304687 17.5375 -1.07421875 18.015625 C-4.2109375 19.109375 -4.2109375 19.109375 -7.2109375 19.109375 C-7.8709375 17.459375 -8.5309375 15.809375 -9.2109375 14.109375 C-10.87705655 14.066654 -12.54476635 14.06873668 -14.2109375 14.109375 C-15.53984134 15.2130373 -15.53984134 15.2130373 -15.3359375 17.984375 C-15.35470616 21.14149913 -15.35470616 21.14149913 -14.2109375 24.109375 C-12.56625326 24.82856619 -10.89462172 25.4869365 -9.2109375 26.109375 C-7.46928038 27.16019244 -5.76048075 28.26710588 -4.0859375 29.421875 C-3.23773437 29.99550781 -2.38953125 30.56914062 -1.515625 31.16015625 C1.9820961 34.11839833 3.57466212 36.60084618 4.22265625 41.16015625 C4.23320039 49.96451043 3.2962548 55.43517354 -2.8359375 61.859375 C-11.15087395 67.96113185 -20.0813027 69.38902101 -30.2109375 68.109375 C-36.48007352 66.56193003 -42.49402373 64.09332511 -48.2109375 61.109375 C-46.83806408 57.41061409 -45.14738297 54.1579274 -43.0859375 50.796875 C-42.54710937 49.91386719 -42.00828125 49.03085938 -41.453125 48.12109375 C-41.04320312 47.45722656 -40.63328125 46.79335937 -40.2109375 46.109375 C-37.39311606 47.20971274 -34.72311954 48.35806651 -32.0234375 49.734375 C-27.54136919 51.70767499 -23.01563267 51.37039466 -18.2109375 51.109375 C-17.79321946 47.77737315 -17.79321946 47.77737315 -18.2109375 44.109375 C-20.40555497 41.69529578 -22.7860641 40.34274649 -25.62890625 38.78125 C-32.67685741 34.82523605 -35.61891828 31.88543267 -38.2109375 24.109375 C-38.94582152 17.21833141 -38.37390741 12.69651883 -34.2109375 7.109375 C-25.68520431 -1.83224761 -11.45268401 -4.99582101 0 0 Z " fill="#5E157D" transform="translate(701.2109375,146.890625)"/>
<path d="M0 0 C1.13985352 -0.0299707 1.13985352 -0.0299707 2.30273438 -0.06054688 C7.91621945 -0.05575312 12.44294225 1.15391192 17.0625 4.4375 C19.07641071 6.75974738 19.87754719 8.50087783 21.0625 11.4375 C20.65234375 14.16015625 20.65234375 14.16015625 20.0625 16.4375 C18.1054132 17.10781719 16.14678887 17.77364683 14.1875 18.4375 C12.55167969 18.994375 12.55167969 18.994375 10.8828125 19.5625 C8.0625 20.4375 8.0625 20.4375 6.0625 20.4375 C5.629375 19.6125 5.19625 18.7875 4.75 17.9375 C4.193125 17.1125 3.63625 16.2875 3.0625 15.4375 C0.47732413 14.93690084 0.47732413 14.93690084 -1.9375 15.4375 C-2.2675 15.7675 -2.5975 16.0975 -2.9375 16.4375 C-2.79098866 20.32005048 -2.69829512 22.65293003 0.0625 25.5 C1.78511234 26.61252047 3.51271008 27.71757722 5.25390625 28.80078125 C13.97840859 34.36319049 13.97840859 34.36319049 16.0625 39.4375 C16.817082 46.80783585 16.99763637 52.96940229 13.0625 59.4375 C7.61390453 65.78597662 1.39528573 69.00073287 -6.89453125 69.6796875 C-17.64388326 69.92306905 -25.3298447 67.06471634 -34.9375 62.4375 C-34.35926904 58.37524452 -33.04632263 55.58987654 -30.875 52.125 C-30.32714844 51.24199219 -29.77929688 50.35898438 -29.21484375 49.44921875 C-28.79332031 48.78535156 -28.37179687 48.12148437 -27.9375 47.4375 C-21.4191568 49.09903846 -21.4191568 49.09903846 -18.625 51.0625 C-14.52150372 53.16196321 -10.46189843 52.67470147 -5.9375 52.4375 C-5.43553706 49.14823505 -5.43553706 49.14823505 -5.9375 45.4375 C-8.99850231 42.22344757 -12.28406869 40.21587993 -16.0625 37.9375 C-20.48982412 35.24555149 -23.27286626 32.43140122 -24.9375 27.4375 C-25.84985706 15.39737813 -25.84985706 15.39737813 -23.25 9.8125 C-16.23946967 2.61249587 -9.8821128 -0.09173269 0 0 Z " fill="#5E147D" transform="translate(948.9375,145.5625)"/>
<path d="M0 0 C4.21838445 2.92751271 7.08038178 5.87488953 8.70703125 10.86328125 C8.70703125 12.87109375 8.70703125 12.87109375 7.70703125 14.86328125 C5.30920574 15.98957754 3.15053811 16.83428792 0.64453125 17.61328125 C-0.01869141 17.83371094 -0.68191406 18.05414063 -1.36523438 18.28125 C-3.00303307 18.82325532 -4.64744371 19.34520627 -6.29296875 19.86328125 C-7.28296875 18.54328125 -8.27296875 17.22328125 -9.29296875 15.86328125 C-12.12835782 15.73383128 -12.12835782 15.73383128 -15.29296875 16.86328125 C-23.01366192 25.6301388 -23.93927058 37.68606143 -23.29296875 48.86328125 C-22.99627643 50.20524345 -22.67453474 51.54294179 -22.29296875 52.86328125 C-21.22369141 52.66412109 -21.22369141 52.66412109 -20.1328125 52.4609375 C-14.8628592 51.48922337 -9.60487825 50.57153585 -4.29296875 49.86328125 C-3.59448611 51.79684907 -2.90952061 53.73530423 -2.23046875 55.67578125 C-1.84761719 56.75472656 -1.46476563 57.83367187 -1.0703125 58.9453125 C-0.29296875 61.86328125 -0.29296875 61.86328125 -1.29296875 64.86328125 C-3.76636291 65.77293052 -6.05387944 66.45630102 -8.60546875 67.05078125 C-9.32879395 67.22150146 -10.05211914 67.39222168 -10.79736328 67.56811523 C-20.40350362 69.69963014 -28.4355236 70.30715392 -37.234375 65.28125 C-42.08395814 61.94083505 -44.49400444 57.37137296 -46.29296875 51.86328125 C-46.60207048 49.05073397 -46.77100037 46.53850144 -46.73046875 43.73828125 C-46.72289551 42.99763428 -46.71532227 42.2569873 -46.70751953 41.49389648 C-46.36571602 29.90875331 -42.50058595 18.20272044 -34.26953125 9.796875 C-32.32717118 8.06752467 -30.35987712 6.44065869 -28.29296875 4.86328125 C-27.6690625 4.33992187 -27.04515625 3.8165625 -26.40234375 3.27734375 C-19.78610491 -1.15798673 -7.37019337 -3.65370745 0 0 Z " fill="#5F167E" transform="translate(762.29296875,146.13671875)"/>
<path d="M0 0 C6.93 0 13.86 0 21 0 C20.37172941 5.65443534 19.70838358 11.01054966 18.66015625 16.5625 C18.53313828 17.23869385 18.4061203 17.9148877 18.2752533 18.61157227 C18.00872886 20.02682795 17.74061483 21.44178516 17.47094727 22.85644531 C17.06349894 24.99475751 16.66121813 27.13399237 16.25976562 29.2734375 C14.95224335 36.20901672 13.58892952 43.12231474 12 50 C14.64 50 17.28 50 20 50 C20 54.62 20 59.24 20 64 C12.89771676 66.74927093 6.19747255 68.63852525 -1.3046875 66.2734375 C-4.55421123 64.80936637 -6.65735542 63.3961828 -9 60.6875 C-11.58944287 53.72837229 -9.23463578 46.17815408 -7.8125 39.16015625 C-7.59053955 38.03806259 -7.3685791 36.91596893 -7.13989258 35.75987244 C-6.43281496 32.19281188 -5.71654451 28.62766963 -5 25.0625 C-4.51762049 22.63749079 -4.03584291 20.21236176 -3.5546875 17.78710938 C-2.37675974 11.85666233 -1.19058661 5.92791807 0 0 Z " fill="#5E147D" transform="translate(498,147)"/>
<path d="M0 0 C-0.71542969 0.53109375 -1.43085938 1.0621875 -2.16796875 1.609375 C-5.29421616 4.24835902 -7.75237342 7.07923582 -10.3125 10.25 C-10.76689453 10.80429687 -11.22128906 11.35859375 -11.68945312 11.9296875 C-12.79754374 13.28272446 -13.89942472 14.64084295 -15 16 C-18.7682128 14.8234501 -22.12021243 13.48419445 -25.5625 11.5625 C-37.5924805 5.49412226 -51.80382487 4.74613975 -65 3 C-65 2.67 -65 2.34 -65 2 C-62.18880696 1.3479973 -59.37624969 0.70329879 -56.5625 0.0625 C-55.3878418 -0.21110352 -55.3878418 -0.21110352 -54.18945312 -0.49023438 C-36.19205658 -4.56371919 -17.94781672 -3.95181285 0 0 Z " fill="#FBA308" transform="translate(177,23)"/>
<path d="M0 0 C-0.64306669 6.08825479 -2.27727013 11.6325466 -4.1875 17.4375 C-4.46658203 18.34048828 -4.74566406 19.24347656 -5.03320312 20.17382812 C-7.00986404 26.19980764 -9.49024553 31.43742927 -14 36 C-16.875 37 -16.875 37 -19 37 C-22.31610027 30.36779947 -19.87194647 20.5630078 -17.984375 13.76953125 C-16.21932589 8.80357959 -13.70964857 4.88650876 -10.1875 1 C-6.77168496 -0.56151545 -3.72893012 -0.18644651 0 0 Z " fill="#F9F6F9" transform="translate(813,161)"/>
<path d="M0 0 C4.04393484 3.09242076 4.04393484 3.09242076 4.4609375 5.83203125 C4.52471968 10.08630239 4.55818653 12.85489062 2.4375 16.625 C-1.66334904 20.17168025 -5.390686 21.18586711 -10.87109375 20.98828125 C-13.65702912 20.48322864 -15.76070486 19.33744071 -17.8046875 17.3828125 C-20.03632154 13.7177201 -19.66803 9.71112066 -18.875 5.625 C-14.69126926 -1.54710985 -7.50628623 -3.58996298 0 0 Z " fill="#5D127C" transform="translate(519.875,116.375)"/>
<path d="M0 0 C4.3721877 2.22584101 4.3721877 2.22584101 6 5 C6.89567122 9.63189972 7.38668999 14.66426332 4.8984375 18.85546875 C3.5625 20.1875 3.5625 20.1875 1 22 C0.67 22.33 0.34 22.66 0 23 C-3.25 23.4375 -3.25 23.4375 -7 23 C-10.76499373 19.8079401 -12.22646693 17.36338344 -13 12.5 C-13.25648777 8.27507651 -12.42235996 5.54702708 -10 2 C-6.23124125 -0.51250583 -4.46849866 -0.53016086 0 0 Z " fill="#FBF9FB" transform="translate(640,59)"/>
<path d="M0 0 C4.38034874 2.22999572 4.38034874 2.22999572 6 5 C6.9775426 10.40260183 6.76844388 15.18367811 4.625 20.25 C1.13363948 22.57757368 -1.5118521 22.71047536 -5.65234375 22.47265625 C-8 22 -8 22 -10.5625 20.0625 C-12.45807741 16.02409595 -13.21219791 12.46401537 -13 8 C-10.50094183 1.12759002 -7.27531812 -0.86317334 0 0 Z " fill="#FBF9FB" transform="translate(784,59)"/>
<path d="M0 0 C3.41335322 0.02713317 4.37412235 0.07746676 7.1875 2.1875 C9.95568567 6.10909637 10.428825 9.59187872 9.6875 14.3125 C7.78382313 18.63205379 5.39067561 20.90882511 1.3125 23.25 C-2.43598237 24.34869311 -5.433168 24.39119767 -9.3125 24.3125 C-8.67312125 20.49888791 -8.02492233 16.68682822 -7.375 12.875 C-7.10139648 11.24208008 -7.10139648 11.24208008 -6.82226562 9.57617188 C-6.64501953 8.54169922 -6.46777344 7.50722656 -6.28515625 6.44140625 C-6.04164429 5.00390015 -6.04164429 5.00390015 -5.79321289 3.53735352 C-4.97930204 -0.22961936 -3.59086137 0.11166345 0 0 Z " fill="#F5F1F6" transform="translate(376.3125,135.6875)"/>
<path d="M0 0 C10.33333333 0 10.33333333 0 14 3 C16.9657349 7.44860234 16.64087636 11.78143535 16 17 C14.19881522 20.00197464 13.09667268 21.45166366 10 23 C6.7 23 3.4 23 0 23 C0 15.41 0 7.82 0 0 Z " fill="#61187F" transform="translate(446,59)"/>
<path d="M0 0 C1.32 0 2.64 0 4 0 C4.67260351 1.76858691 5.33788395 3.53996016 6 5.3125 C6.37125 6.29863281 6.7425 7.28476563 7.125 8.30078125 C8 11 8 11 8 14 C8.66 14 9.32 14 10 14 C10.12375 12.80375 10.2475 11.6075 10.375 10.375 C10.82325054 6.72403187 11.70446837 3.45475101 13 0 C14.65 0 16.3 0 18 0 C18.33675279 2.89547264 18.66951734 5.79131072 19 8.6875 C19.09539063 9.50412109 19.19078125 10.32074219 19.2890625 11.16210938 C19.73870522 15.12860052 20.13034543 19.00002463 20 23 C18.68 23 17.36 23 16 23 C15.93941406 22.22914062 15.87882813 21.45828125 15.81640625 20.6640625 C15.69072266 19.15972656 15.69072266 19.15972656 15.5625 17.625 C15.48128906 16.62726563 15.40007813 15.62953125 15.31640625 14.6015625 C15.15034374 12.02072387 15.15034374 12.02072387 14 10 C13.01 13.3 12.02 16.6 11 20 C9.68 20 8.36 20 7 20 C5.68 15.71 4.36 11.42 3 7 C2.34 12.28 1.68 17.56 1 23 C0.01 23 -0.98 23 -2 23 C-2.2700558 15.1683819 -1.23107719 7.72720775 0 0 Z " fill="#73358E" transform="translate(659,59)"/>
<path d="M0 0 C10 0 10 0 14 3 C14.25 6.6875 14.25 6.6875 14 10 C12.02 10.99 12.02 10.99 10 12 C10.3609375 12.62648438 10.721875 13.25296875 11.09375 13.8984375 C11.5578125 14.71570313 12.021875 15.53296875 12.5 16.375 C12.9640625 17.18710938 13.428125 17.99921875 13.90625 18.8359375 C15 21 15 21 15 23 C13.25 22.9375 13.25 22.9375 11 22 C8.99159505 19.29950956 7 16.44873267 7 13 C5.68 13 4.36 13 3 13 C3 15.97 3 18.94 3 22 C2.01 22 1.02 22 0 22 C0 14.74 0 7.48 0 0 Z " fill="#54137B" transform="translate(513,59)"/>
<path d="M0 0 C9 0 9 0 12.0625 1.0625 C14 3 14 3 14.3125 6.6875 C14.1578125 8.3271875 14.1578125 8.3271875 14 10 C12.02 10.99 12.02 10.99 10 12 C10.3609375 12.62648438 10.721875 13.25296875 11.09375 13.8984375 C11.5578125 14.71570313 12.021875 15.53296875 12.5 16.375 C12.9640625 17.18710938 13.428125 17.99921875 13.90625 18.8359375 C15 21 15 21 15 23 C13.25 22.9375 13.25 22.9375 11 22 C8.99159505 19.29950956 7 16.44873267 7 13 C5.68 13 4.36 13 3 13 C3 15.97 3 18.94 3 22 C2.01 22 1.02 22 0 22 C0 14.74 0 7.48 0 0 Z " fill="#56117B" transform="translate(369,59)"/>
<path d="M0 0 C1.65 0 3.3 0 5 0 C6.17152378 3.45670732 7.33639077 6.91562122 8.5 10.375 C9.00080078 11.85226563 9.00080078 11.85226563 9.51171875 13.359375 C9.82753906 14.30039063 10.14335937 15.24140625 10.46875 16.2109375 C10.90864258 17.51490479 10.90864258 17.51490479 11.35742188 18.84521484 C12 21 12 21 12 23 C10.68 23 9.36 23 8 23 C7.67 21.02 7.34 19.04 7 17 C4.03 17.33 1.06 17.66 -2 18 C-2.33 19.65 -2.66 21.3 -3 23 C-4.32 23 -5.64 23 -7 23 C-4.97810834 15.21878058 -2.61369593 7.60227292 0 0 Z " fill="#692987" transform="translate(424,59)"/>
<path d="M0 0 C2.475 0.495 2.475 0.495 5 1 C6.5294264 3.55890491 7.68729266 5.83766016 8.8125 8.5625 C9.12380859 9.27341797 9.43511719 9.98433594 9.75585938 10.71679688 C10.52091598 12.47054201 11.26273604 14.23439091 12 16 C12.33 10.72 12.66 5.44 13 0 C13.99 0 14.98 0 16 0 C16 7.59 16 15.18 16 23 C14.35 23 12.7 23 11 23 C8.69 18.05 6.38 13.1 4 8 C3.67 12.95 3.34 17.9 3 23 C2.01 23 1.02 23 0 23 C0 15.41 0 7.82 0 0 Z " fill="#70308C" transform="translate(872,59)"/>
<path d="M0 0 C5 1 5 1 7.25 3.375 C10.08800004 7.63200006 10.42804675 10.94904831 10 16 C7.92875805 19.8465922 5.81061201 22.78738658 2 25 C1.01 25 0.02 25 -1 25 C-0.67 16.75 -0.34 8.5 0 0 Z " fill="#F1990B" transform="translate(201,119)"/>
<path d="M0 0 C2.19853908 2.98373162 2.16195187 4.7498235 1.75 8.375 C-3.875 8.625 -3.875 8.625 -7.25 6.375 C-9.57387947 5.98112212 -11.90793749 5.64013915 -14.25 5.375 C-14.91 6.695 -15.57 8.015 -16.25 9.375 C-17.9 9.045 -19.55 8.715 -21.25 8.375 C-21.625 5.625 -21.625 5.625 -21.25 2.375 C-15.80119219 -3.37651936 -6.8456105 -3.42280525 0 0 Z " fill="#641776" transform="translate(182.25,105.625)"/>
<path d="M0 0 C3.81836388 1.77751422 5.49659011 2.67854904 7 6.625 C7 7.40875 7 8.1925 7 9 C6.34 9.66 5.68 10.32 5 11 C3.68 11 2.36 11 1 11 C0.34 10.01 -0.32 9.02 -1 8 C-2.97747122 7.63702064 -2.97747122 7.63702064 -5.125 7.8125 C-6.40375 7.874375 -7.6825 7.93625 -9 8 C-9.33 8.66 -9.66 9.32 -10 10 C-11.98 10 -13.96 10 -16 10 C-16.33 8.35 -16.66 6.7 -17 5 C-11.89839544 -0.51524818 -7.36701067 -1.18047055 0 0 Z " fill="#631676" transform="translate(129,118)"/>
<path d="M0 0 C0.33 7.92 0.66 15.84 1 24 C-5 23 -5 23 -7.375 20.5625 C-9.51035987 15.88113413 -10.07548485 12.05876208 -9 7 C-6.74779269 3.0251012 -4.75277832 0 0 0 Z " fill="#F9A004" transform="translate(95,119)"/>
<path d="M0 0 C4.3721877 2.22584101 4.3721877 2.22584101 6 5 C6.89567122 9.63189972 7.38668999 14.66426332 4.8984375 18.85546875 C3.5625 20.1875 3.5625 20.1875 1 22 C0.67 22.33 0.34 22.66 0 23 C-3.25 23.4375 -3.25 23.4375 -7 23 C-10.76499373 19.8079401 -12.22646693 17.36338344 -13 12.5 C-13.25648777 8.27507651 -12.42235996 5.54702708 -10 2 C-6.23124125 -0.51250583 -4.46849866 -0.53016086 0 0 Z M-7 3 C-9.13749925 6.20624887 -9.29574999 7.22458103 -9.3125 10.9375 C-9.32925781 11.79214844 -9.34601562 12.64679688 -9.36328125 13.52734375 C-8.9264242 16.50079009 -8.08401365 17.85741922 -6 20 C-3 20.66666667 -3 20.66666667 0 20 C2.82947838 17.08417604 3.41130913 14.94965908 3.375 10.9375 C3.38273438 10.08027344 3.39046875 9.22304687 3.3984375 8.33984375 C2.92097343 5.53591257 2.29722083 4.64238087 0 3 C-3.54213985 2.49992206 -3.54213985 2.49992206 -7 3 Z " fill="#5E1581" transform="translate(640,59)"/>
<path d="M0 0 C4.38034874 2.22999572 4.38034874 2.22999572 6 5 C6.9775426 10.40260183 6.76844388 15.18367811 4.625 20.25 C1.13363948 22.57757368 -1.5118521 22.71047536 -5.65234375 22.47265625 C-8 22 -8 22 -10.5625 20.0625 C-12.45807741 16.02409595 -13.21219791 12.46401537 -13 8 C-10.50094183 1.12759002 -7.27531812 -0.86317334 0 0 Z M-7 3 C-9.13749925 6.20624887 -9.29574999 7.22458103 -9.3125 10.9375 C-9.32925781 11.79214844 -9.34601562 12.64679688 -9.36328125 13.52734375 C-8.9264242 16.50079009 -8.08401365 17.85741922 -6 20 C-3 20.66666667 -3 20.66666667 0 20 C2.82947838 17.08417604 3.41130913 14.94965908 3.375 10.9375 C3.38273438 10.08027344 3.39046875 9.22304687 3.3984375 8.33984375 C2.92097343 5.53591257 2.29722083 4.64238087 0 3 C-3.54213985 2.49992206 -3.54213985 2.49992206 -7 3 Z " fill="#662084" transform="translate(784,59)"/>
<path d="M0 0 C6 0 6 0 8.375 2.0625 C10.41352682 5.74752926 10.51141599 7.83561269 10 12 C8.5 15.4375 8.5 15.4375 7 18 C4.69 18 2.38 18 0 18 C0 12.06 0 6.12 0 0 Z " fill="#F4F0F6" transform="translate(449,61)"/>
<path d="M0 0 C1.66611905 -0.042721 3.33382885 -0.04063832 5 0 C5.33 0.33 5.66 0.66 6 1 C7.87321948 1.16053815 7.87321948 1.16053815 10 1.125 C10.721875 1.12757813 11.44375 1.13015625 12.1875 1.1328125 C14.02089415 1.19695276 14.02089415 1.19695276 15 0 C17.5 -0.125 17.5 -0.125 20 0 C21 1 21 1 21.375 3.375 C21 6 21 6 18.8515625 7.63671875 C14.04501684 9.93464264 9.21292288 9.68401612 4 9 C0.75 7 0.75 7 -1 5 C-0.67 3.35 -0.34 1.7 0 0 Z " fill="#611677" transform="translate(138,133)"/>
<path d="M0 0 C4.29 0 8.58 0 13 0 C13 0.66 13 1.32 13 2 C10.03 2 7.06 2 4 2 C4 4.64 4 7.28 4 10 C6.31 10 8.62 10 11 10 C11 10.99 11 11.98 11 13 C8.69 13 6.38 13 4 13 C4 15.31 4 17.62 4 20 C6.97 20 9.94 20 13 20 C13 20.99 13 21.98 13 23 C8.71 23 4.42 23 0 23 C0 15.41 0 7.82 0 0 Z " fill="#734292" transform="translate(539,59)"/>
<path d="M0 0 C18.15 0 36.3 0 55 0 C55 0.33 55 0.66 55 1 C38.40890788 4.52823225 15.78323178 7.89161589 0 0 Z " fill="#F09E1F" transform="translate(120,257)"/>
<path d="M0 0 C1.32 0 2.64 0 4 0 C6.64 5.61 9.28 11.22 12 17 C12.33 11.39 12.66 5.78 13 0 C13.66 0 14.32 0 15 0 C15 7.26 15 14.52 15 22 C13.35 21.67 11.7 21.34 10 21 C8.4705736 18.44109509 7.31270734 16.16233984 6.1875 13.4375 C5.72053711 12.37112305 5.72053711 12.37112305 5.24414062 11.28320312 C4.47908402 9.52945799 3.73726396 7.76560909 3 6 C2.67 11.28 2.34 16.56 2 22 C1.34 22 0.68 22 0 22 C0 14.74 0 7.48 0 0 Z " fill="#5B127C" transform="translate(803,59)"/>
<path d="M0 0 C3.96 0 7.92 0 12 0 C12 0.99 12 1.98 12 3 C9.36 3 6.72 3 4 3 C4 5.31 4 7.62 4 10 C6.31 10 8.62 10 11 10 C11 10.99 11 11.98 11 13 C8.69 13 6.38 13 4 13 C4 16.3 4 19.6 4 23 C2.68 23 1.36 23 0 23 C0 15.41 0 7.82 0 0 Z " fill="#7A4796" transform="translate(489,59)"/>
<path d="M0 0 C0.875 2.0625 0.875 2.0625 1 5 C-1.20750011 8.6739109 -3.87165112 11.38209466 -7.625 13.4375 C-10 14 -10 14 -14 14 C-12.44184004 8.58185288 -11.01544136 4.14497173 -7 0 C-4.3333581 -1.33332095 -2.83319697 -0.67102033 0 0 Z " fill="#F1EDF3" transform="translate(633,161)"/>
<path d="M0 0 C3.96 0 7.92 0 12 0 C12 0.66 12 1.32 12 2 C9.03 2 6.06 2 3 2 C3 4.64 3 7.28 3 10 C5.64 10 8.28 10 11 10 C11 10.66 11 11.32 11 12 C8.36 12 5.72 12 3 12 C3 14.64 3 17.28 3 20 C6.3 20 9.6 20 13 20 C13 20.99 13 21.98 13 23 C8.71 23 4.42 23 0 23 C0 15.41 0 7.82 0 0 Z " fill="#5F2783" transform="translate(564,59)"/>
<path d="M0 0 C3.96 0 7.92 0 12 0 C12 0.66 12 1.32 12 2 C9.03 2 6.06 2 3 2 C3 4.64 3 7.28 3 10 C5.31 10 7.62 10 10 10 C10 10.66 10 11.32 10 12 C7.69 12 5.38 12 3 12 C3 14.64 3 17.28 3 20 C6.3 20 9.6 20 13 20 C13 20.99 13 21.98 13 23 C8.71 23 4.42 23 0 23 C0 15.41 0 7.82 0 0 Z " fill="#5F2983" transform="translate(396,59)"/>
<path d="M0 0 C0.80824219 0.11085937 1.61648438 0.22171875 2.44921875 0.3359375 C3.37154297 0.47902344 3.37154297 0.47902344 4.3125 0.625 C4.3125 1.615 4.3125 2.605 4.3125 3.625 C1.3425 3.625 -1.6275 3.625 -4.6875 3.625 C-4.17114369 7.58783241 -4.17114369 7.58783241 -1.91015625 8.8203125 C-1.19730469 9.12710938 -0.48445312 9.43390625 0.25 9.75 C2.84459987 10.88955203 4.27799847 11.59049847 6.3125 13.625 C6.125 16.625 6.125 16.625 5.3125 19.625 C1.99879 21.83414 0.9678979 21.84981553 -2.875 21.75 C-3.77605469 21.73195313 -4.67710937 21.71390625 -5.60546875 21.6953125 C-6.29253906 21.67210938 -6.97960937 21.64890625 -7.6875 21.625 C-8.0175 20.635 -8.3475 19.645 -8.6875 18.625 C-5.3875 18.625 -2.0875 18.625 1.3125 18.625 C1.3125 16.975 1.3125 15.325 1.3125 13.625 C0.219375 13.2125 -0.87375 12.8 -2 12.375 C-5.18143584 10.99401162 -7.15741813 9.87642397 -8.6875 6.625 C-8.5625 4 -8.5625 4 -7.6875 1.625 C-4.33422361 -0.61051759 -3.78006343 -0.54783528 0 0 Z " fill="#661D84" transform="translate(739.6875,59.375)"/>
<path d="M0 0 C0.66 0.33 1.32 0.66 2 1 C2 1.99 2 2.98 2 4 C-0.97 4 -3.94 4 -7 4 C-8.30459914 6.60919828 -8.1326594 8.58942615 -8.125 11.5 C-8.12757813 12.4796875 -8.13015625 13.459375 -8.1328125 14.46875 C-8.16940053 16.99431054 -8.16940053 16.99431054 -7 19 C-4.03 19 -1.06 19 2 19 C2 19.99 2 20.98 2 22 C-1.13871188 23.56935594 -3.53855822 23.35201103 -7 23 C-10.15954305 20.45862841 -11.71540886 18.85377341 -13 15 C-13.50149463 8.88176547 -13.06790897 5.90541964 -9 1 C-6.01405576 -0.49297212 -3.29146376 -0.11755228 0 0 Z " fill="#651E83" transform="translate(719,59)"/>
<path d="M0 0 C3.96 0 7.92 0 12 0 C12 0.66 12 1.32 12 2 C9.03 2 6.06 2 3 2 C3 4.64 3 7.28 3 10 C5.64 10 8.28 10 11 10 C11 10.66 11 11.32 11 12 C8.36 12 5.72 12 3 12 C3 14.97 3 17.94 3 21 C6.3 21 9.6 21 13 21 C13 21.66 13 22.32 13 23 C8.71 23 4.42 23 0 23 C0 15.41 0 7.82 0 0 Z " fill="#612B85" transform="translate(901,59)"/>
<path d="M0 0 C-0.33 0.99 -0.66 1.98 -1 3 C-2.27875 2.95875 -3.5575 2.9175 -4.875 2.875 C-7.01871492 2.75787127 -7.01871492 2.75787127 -9 3 C-11.17915354 4.77311589 -11.17915354 4.77311589 -11.265625 7.0234375 C-11.26046875 7.79945312 -11.2553125 8.57546875 -11.25 9.375 C-11.25515625 10.14585938 -11.2603125 10.91671875 -11.265625 11.7109375 C-11.08584621 14.39686477 -11.08584621 14.39686477 -9 18 C-6.03 18 -3.06 18 0 18 C-1 21 -1 21 -3 22 C-6.83191838 22.42576871 -8.52949683 22.30321315 -11.8125 20.1875 C-14.93943395 17.06056605 -15.1895555 14.38276232 -15.3125 10.125 C-15.28051678 6.47358227 -15.10107204 5.1707769 -13.1875 1.9375 C-8.83220126 -1.92005032 -5.34829631 -0.7890929 0 0 Z " fill="#6D2D8B" transform="translate(618,60)"/>
<path d="M0 0 C1.32 0 2.64 0 4 0 C6.21854707 4.62197306 7.38281159 7.76824163 7 13 C6.34 13 5.68 13 5 13 C4.34 11.02 3.68 9.04 3 7 C2.34 12.28 1.68 17.56 1 23 C0.01 23 -0.98 23 -2 23 C-2.2700558 15.1683819 -1.23107719 7.72720775 0 0 Z " fill="#692887" transform="translate(659,59)"/>
<path d="M0 0 C2.76223278 2.76223278 2.57856291 5.20706617 3 9 C3.99 8.67 4.98 8.34 6 8 C6.6708712 9.6232687 7.33657029 11.24867578 8 12.875 C8.37125 13.77992187 8.7425 14.68484375 9.125 15.6171875 C10 18 10 18 10 20 C8.68 20 7.36 20 6 20 C5.67 18.02 5.34 16.04 5 14 C2.03 14 -0.94 14 -4 14 C-3.52372025 12.04096255 -3.04388577 10.08278903 -2.5625 8.125 C-2.29566406 7.03445312 -2.02882813 5.94390625 -1.75390625 4.8203125 C-1 2 -1 2 0 0 Z " fill="#7E4996" transform="translate(426,62)"/>
<path d="M0 0 C0.99 0 1.98 0 3 0 C3 6.6 3 13.2 3 20 C5.97 20 8.94 20 12 20 C12 20.99 12 21.98 12 23 C8.04 23 4.08 23 0 23 C0 15.41 0 7.82 0 0 Z " fill="#641F82" transform="translate(832,59)"/>
<path d="M0 0 C1.32 0 2.64 0 4 0 C4 7.59 4 15.18 4 23 C2.68 23 1.36 23 0 23 C0 15.41 0 7.82 0 0 Z " fill="#804899" transform="translate(855,59)"/>
<path d="M0 0 C0 0.99 0 1.98 0 3 C-1.134375 3.12375 -2.26875 3.2475 -3.4375 3.375 C-5.2009375 3.684375 -5.2009375 3.684375 -7 4 C-8.23689062 6.47378124 -8.13310087 8.17915317 -8.125 10.9375 C-8.12757813 11.81277344 -8.13015625 12.68804687 -8.1328125 13.58984375 C-8.09822003 16.14459056 -8.09822003 16.14459056 -7 19 C-7.99 19.33 -8.98 19.66 -10 20 C-12.88164742 15.50463002 -13.45032331 12.27357873 -12.6328125 7.125 C-10.65035456 0.4678573 -6.3499167 -0.62254085 0 0 Z " fill="#6B2989" transform="translate(784,59)"/>
<path d="M0 0 C0.99 0.33 1.98 0.66 3 1 C2.38253906 1.59425781 1.76507812 2.18851563 1.12890625 2.80078125 C-3.36778368 7.2016513 -7.5755169 11.57859991 -11.5 16.5 C-15.9588096 22.09145891 -20.84862121 27.04220121 -26 32 C-26.66 31.67 -27.32 31.34 -28 31 C-27.43454468 30.39696045 -27.43454468 30.39696045 -26.85766602 29.78173828 C-13.08591737 15.19560526 -13.08591737 15.19560526 0 0 Z " fill="#6A2486" transform="translate(546,180)"/>
<path d="M0 0 C2.31 0 4.62 0 7 0 C5.68 0.33 4.36 0.66 3 1 C3 7.6 3 14.2 3 21 C4.32 21.33 5.64 21.66 7 22 C4.69 22 2.38 22 0 22 C0 14.74 0 7.48 0 0 Z " fill="#58127A" transform="translate(446,59)"/>
<path d="M0 0 C2.5 0.125 2.5 0.125 3.5 1.125 C3.73880597 8.64738806 3.73880597 8.64738806 2.5 11.125 C-2.375 10.25 -2.375 10.25 -3.5 9.125 C-3.6328125 7.3125 -3.6328125 7.3125 -3.625 5.125 C-3.62757813 4.403125 -3.63015625 3.68125 -3.6328125 2.9375 C-3.42186711 0.05871588 -2.89175802 0.1445879 0 0 Z " fill="#631677" transform="translate(172.5,117.875)"/>
<path d="M0 0 C2.31 0 4.62 0 7 0 C7.625 3.375 7.625 3.375 8 7 C6 9 6 9 2.875 9.125 C1.451875 9.063125 1.451875 9.063125 0 9 C0 6.03 0 3.06 0 0 Z " fill="#EFEAF2" transform="translate(372,61)"/>
<path d="M0 0 C2.875 -0.125 2.875 -0.125 6 0 C8 2 8 2 8.25 4.5 C8 7 8 7 6 9 C2.875 9.125 2.875 9.125 0 9 C0 6.03 0 3.06 0 0 Z " fill="#F2EDF4" transform="translate(516,61)"/>
<path d="M0 0 C0.99 0 1.98 0 3 0 C3 7.26 3 14.52 3 22 C2.01 22 1.02 22 0 22 C0 14.74 0 7.48 0 0 Z " fill="#5E177E" transform="translate(691,59)"/>
<path d="M0 0 C3.28521123 0.56641573 4.97316669 1.32229627 7 4 C7.3984375 6.8125 7.3984375 6.8125 7.375 10 C7.38273438 11.051875 7.39046875 12.10375 7.3984375 13.1875 C6.9629499 16.26153012 6.42364591 17.15341264 4 19 C3.34 18.34 2.68 17.68 2 17 C2.33 16.34 2.66 15.68 3 15 C3.52274617 9.32016184 3.71435943 4.64294928 0 0 Z " fill="#671F84" transform="translate(639,60)"/>
<path d="M0 0 C0.33 0.66 0.66 1.32 1 2 C1.66 2 2.32 2 3 2 C2.01 5.96 1.02 9.92 0 14 C-1.32 14 -2.64 14 -4 14 C-4.66 11.69 -5.32 9.38 -6 7 C-5.34 7 -4.68 7 -4 7 C-3.67 6.34 -3.34 5.68 -3 5 C-3 5.99 -3 6.98 -3 8 C-2.34 8 -1.68 8 -1 8 C-0.67 5.36 -0.34 2.72 0 0 Z " fill="#804698" transform="translate(670,65)"/>
<path d="M0 0 C0 0.99 0 1.98 0 3 C-2.31 3.33 -4.62 3.66 -7 4 C-7.66 7.3 -8.32 10.6 -9 14 C-9.33 14 -9.66 14 -10 14 C-10.33 12.35 -10.66 10.7 -11 9 C-11.33 10.65 -11.66 12.3 -12 14 C-12.33 14 -12.66 14 -13 14 C-12.88594876 9.24095282 -12.63974308 5.92198267 -9.875 1.9375 C-6.33324208 -0.44933686 -4.18774791 -0.41056352 0 0 Z " fill="#7B3E94" transform="translate(640,59)"/>
<path d="M0 0 C3.3125 0.375 3.3125 0.375 5.3125 1.375 C5.3125 2.365 5.3125 3.355 5.3125 4.375 C2.3425 4.375 -0.6275 4.375 -3.6875 4.375 C-4.3475 7.675 -5.0075 10.975 -5.6875 14.375 C-6.0175 14.375 -6.3475 14.375 -6.6875 14.375 C-6.6875 11.735 -6.6875 9.095 -6.6875 6.375 C-7.3475 6.045 -8.0075 5.715 -8.6875 5.375 C-5.82566813 1.90611289 -4.57109915 0.46485754 0 0 Z " fill="#6E2F8C" transform="translate(715.6875,58.625)"/>
<path d="M0 0 C1.32 0.33 2.64 0.66 4 1 C3.67 1.66 3.34 2.32 3 3 C2.84932786 4.4465242 2.75138964 5.8987934 2.68359375 7.3515625 C2.64169922 8.20234375 2.59980469 9.053125 2.55664062 9.9296875 C2.51732422 10.81914063 2.47800781 11.70859375 2.4375 12.625 C2.39431641 13.5221875 2.35113281 14.419375 2.30664062 15.34375 C2.20043139 17.56234283 2.09838806 19.7810488 2 22 C1.34 22 0.68 22 0 22 C0 14.74 0 7.48 0 0 Z " fill="#58107A" transform="translate(872,59)"/>
<path d="M0 0 C0.99 0 1.98 0 3 0 C2.67 7.26 2.34 14.52 2 22 C1.34 22 0.68 22 0 22 C0 14.74 0 7.48 0 0 Z " fill="#59117A" transform="translate(803,59)"/>
<path d="M0 0 C0.99 0.33 1.98 0.66 3 1 C2.6875 3.875 2.6875 3.875 2 7 C-1.31371 9.20914 -2.3446021 9.22481553 -6.1875 9.125 C-7.08855469 9.10695313 -7.98960937 9.08890625 -8.91796875 9.0703125 C-9.60503906 9.04710938 -10.29210937 9.02390625 -11 9 C-11.33 8.01 -11.66 7.02 -12 6 C-8.7 6 -5.4 6 -2 6 C-1.34 4.02 -0.68 2.04 0 0 Z " fill="#621B82" transform="translate(743,72)"/>
<path d="M0 0 C-0.66 0 -1.32 0 -2 0 C-1.6390625 0.62648438 -1.278125 1.25296875 -0.90625 1.8984375 C-0.4421875 2.71570313 0.021875 3.53296875 0.5 4.375 C0.9640625 5.18710938 1.428125 5.99921875 1.90625 6.8359375 C3 9 3 9 3 11 C1.25 10.9375 1.25 10.9375 -1 10 C-3.00840495 7.29950956 -5 4.44873267 -5 1 C-6.32 0.67 -7.64 0.34 -9 0 C-5.62182575 -0.84454356 -3.32534757 -1.10844919 0 0 Z " fill="#6B2987" transform="translate(525,71)"/>
<path d="M0 0 C0.99 0 1.98 0 3 0 C3 4.95 3 9.9 3 15 C2.01 15 1.02 15 0 15 C0 10.05 0 5.1 0 0 Z " fill="#601D80" transform="translate(925,59)"/>
<path d="M0 0 C2.48627517 3.0622744 4.09989404 6.1457054 5.6875 9.75 C6.12449219 10.73484375 6.56148437 11.7196875 7.01171875 12.734375 C7.33785156 13.48203125 7.66398438 14.2296875 8 15 C7.01 15.66 6.02 16.32 5 17 C3.96724659 14.73392948 2.94866449 12.46318061 1.9375 10.1875 C1.49567383 9.22360352 1.49567383 9.22360352 1.04492188 8.24023438 C-1.11328125 3.33984375 -1.11328125 3.33984375 0 0 Z " fill="#631981" transform="translate(806,59)"/>
<path d="M0 0 C-0.66 0 -1.32 0 -2 0 C-1.6390625 0.62648438 -1.278125 1.25296875 -0.90625 1.8984375 C-0.4421875 2.71570313 0.021875 3.53296875 0.5 4.375 C0.9640625 5.18710938 1.428125 5.99921875 1.90625 6.8359375 C3 9 3 9 3 11 C1.25 10.9375 1.25 10.9375 -1 10 C-3.00840495 7.29950956 -5 4.44873267 -5 1 C-6.32 0.67 -7.64 0.34 -9 0 C-5.62182575 -0.84454356 -3.32534757 -1.10844919 0 0 Z " fill="#6A2786" transform="translate(381,71)"/>
<path d="M0 0 C0.33 0.66 0.66 1.32 1 2 C1.99 1.67 2.98 1.34 4 1 C2.72129354 4.94267826 1.57303105 6.86610645 -2 9 C-4.578125 9.29296875 -4.578125 9.29296875 -7.25 9.1875 C-8.14203125 9.16042969 -9.0340625 9.13335937 -9.953125 9.10546875 C-10.62859375 9.07066406 -11.3040625 9.03585938 -12 9 C-9.0163065 5.57563792 -6.4751616 5.42218506 -2 5 C-1.34 3.35 -0.68 1.7 0 0 Z " fill="#834F9B" transform="translate(458,73)"/>
<path d="M0 0 C2.39763185 2.39763185 2.34280586 3.33273498 2.625 6.625 C2.69976562 7.44226563 2.77453125 8.25953125 2.8515625 9.1015625 C2.92503906 10.04128906 2.92503906 10.04128906 3 11 C1.02 11 -0.96 11 -3 11 C-2.69078116 9.54096742 -2.37751201 8.08279278 -2.0625 6.625 C-1.88847656 5.81289062 -1.71445312 5.00078125 -1.53515625 4.1640625 C-1 2 -1 2 0 0 Z " fill="#EBE2EE" transform="translate(426,62)"/>
<path d="M0 0 C1 1 1 1 1.0625 4.5625 C1.041875 5.696875 1.02125 6.83125 1 8 C-0.65 8.33 -2.3 8.66 -4 9 C-3.67 6.69 -3.34 4.38 -3 2 C-5.31 1.34 -7.62 0.68 -10 0 C-10 -0.33 -10 -0.66 -10 -1 C-5.94988606 -2.15717541 -3.76349849 -1.88174925 0 0 Z " fill="#631A81" transform="translate(526,61)"/>
<path d="M0 0 C0.309375 0.66 0.61875 1.32 0.9375 2 C3.45557014 4.44176498 4.28107372 4.27142406 7.6875 4.25 C9.1259798 4.18576167 10.56416999 4.10836453 12 4 C11 7 11 7 9 8 C5.51044604 8.30343947 3.62494296 8.39470082 0.625 6.5 C0.08875 6.005 -0.4475 5.51 -1 5 C-0.67 3.35 -0.34 1.7 0 0 Z " fill="#70338E" transform="translate(606,74)"/>
<path d="M0 0 C1.65 0 3.3 0 5 0 C5.99 3.63 6.98 7.26 8 11 C7.01 11.33 6.02 11.66 5 12 C4.34 9.03 3.68 6.06 3 3 C2.01 3 1.02 3 0 3 C0 2.01 0 1.02 0 0 Z " fill="#6C2989" transform="translate(424,59)"/>
<path d="M0 0 C0.66 0 1.32 0 2 0 C2 4.29 2 8.58 2 13 C1.01 13.495 1.01 13.495 0 14 C-0.99293628 11.02119115 -1.13406411 8.98398802 -1.125 5.875 C-1.12757813 4.98554687 -1.13015625 4.09609375 -1.1328125 3.1796875 C-1 1 -1 1 0 0 Z " fill="#61187F" transform="translate(604,64)"/>
<path d="M0 0 C0.66 0 1.32 0 2 0 C2 4.29 2 8.58 2 13 C1.01 13 0.02 13 -1 13 C-1.0272415 11.58344207 -1.04650467 10.16672955 -1.0625 8.75 C-1.07410156 7.96109375 -1.08570313 7.1721875 -1.09765625 6.359375 C-1.00385306 4.09308998 -0.63241063 2.1711105 0 0 Z " fill="#70318C" transform="translate(658,69)"/>
<path d="M0 0 C0.33 1.32 0.66 2.64 1 4 C1.66 4 2.32 4 3 4 C3.33 2.68 3.66 1.36 4 0 C4.66 3.63 5.32 7.26 6 11 C5.01 11.33 4.02 11.66 3 12 C0.58314288 7.77050005 -0.34833144 4.87664009 0 0 Z " fill="#773890" transform="translate(771,67)"/>
<path d="M0 0 C2.31 0 4.62 0 7 0 C5.68 0.33 4.36 0.66 3 1 C3 3.97 3 6.94 3 10 C2.01 9.67 1.02 9.34 0 9 C0 6.03 0 3.06 0 0 Z " fill="#621C80" transform="translate(369,60)"/>
<path d="M0 0 C6.36 0.6 6.36 0.6 9 2.25 C10 4 10 4 9.6875 6.6875 C9.460625 7.450625 9.23375 8.21375 9 9 C8.814375 8.401875 8.62875 7.80375 8.4375 7.1875 C6.27726247 3.90018201 3.64892345 3.35145313 0 2 C0 1.34 0 0.68 0 0 Z " fill="#73368F" transform="translate(734,68)"/>
<path d="M0 0 C0.66 0.33 1.32 0.66 2 1 C-1.3 4.3 -4.6 7.6 -8 11 C-8.66 10.67 -9.32 10.34 -10 10 C-8.90033225 8.70450101 -7.79508199 7.41373929 -6.6875 6.125 C-6.07261719 5.40570313 -5.45773438 4.68640625 -4.82421875 3.9453125 C-3 2 -3 2 0 0 Z " fill="#6B1C6F" transform="translate(78,64)"/>
<path d="M0 0 C0 0.99 0 1.98 0 3 C-3.04983996 4.52491998 -5.6423369 4.23562548 -9 4 C-10.72265625 2.484375 -10.72265625 2.484375 -12 1 C-10.37512529 0.83211627 -8.75009558 0.66573213 -7.125 0.5 C-6.22007812 0.4071875 -5.31515625 0.314375 -4.3828125 0.21875 C-2 0 -2 0 0 0 Z " fill="#7D4797" transform="translate(721,78)"/>
<path d="M0 0 C0 3 0 3 -1.53125 4.82421875 C-2.1809375 5.43910156 -2.830625 6.05398437 -3.5 6.6875 C-4.1496875 7.31011719 -4.799375 7.93273437 -5.46875 8.57421875 C-5.9740625 9.04472656 -6.479375 9.51523438 -7 10 C-7.66 9.67 -8.32 9.34 -9 9 C-7.87895467 7.68412059 -6.75303035 6.37239647 -5.625 5.0625 C-4.99851562 4.33160156 -4.37203125 3.60070312 -3.7265625 2.84765625 C-2 1 -2 1 0 0 Z " fill="#6C2888" transform="translate(733,152)"/>
<path d="M0 0 C7.26 0.33 14.52 0.66 22 1 C22 1.33 22 1.66 22 2 C11.11 2.495 11.11 2.495 0 3 C0 2.01 0 1.02 0 0 Z " fill="#E4DEE8" transform="translate(412,212)"/>
<path d="M0 0 C-1.38188453 3.21043882 -2.92421903 5.04936365 -5.625 7.25 C-6.57246094 8.03117188 -6.57246094 8.03117188 -7.5390625 8.828125 C-8.02117188 9.21484375 -8.50328125 9.6015625 -9 10 C-7.6834994 5.81113445 -4.97532335 0 0 0 Z " fill="#682485" transform="translate(788,153)"/>
<path d="M0 0 C0.33 0 0.66 0 1 0 C1.33 3.3 1.66 6.6 2 10 C1.01 10.495 1.01 10.495 0 11 C-1.62651522 7.74696956 -1.11453156 4.60774398 -1 1 C-0.67 0.67 -0.34 0.34 0 0 Z " fill="#5F167E" transform="translate(629,67)"/>
<path d="M0 0 C3.625 -0.1875 3.625 -0.1875 7 0 C7 0.99 7 1.98 7 3 C4.03 3 1.06 3 -2 3 C-1.34 2.01 -0.68 1.02 0 0 Z " fill="#70318E" transform="translate(633,59)"/>
<path d="M0 0 C0.66 0.66 1.32 1.32 2 2 C-0.31 4.31 -2.62 6.62 -5 9 C-5.66 8.67 -6.32 8.34 -7 8 C-4.69 5.36 -2.38 2.72 0 0 Z " fill="#671F84" transform="translate(878,150)"/>
<path d="M0 0 C0.99 0.33 1.98 0.66 3 1 C4.1875 3.5625 4.1875 3.5625 5 6 C4.01 6.66 3.02 7.32 2 8 C0.23537317 4.91190305 0 3.76687864 0 0 Z " fill="#6D2888" transform="translate(809,68)"/>
<path d="M0 0 C2 3 2 3 1.7578125 5.48046875 C1.54898438 6.37378906 1.34015625 7.26710938 1.125 8.1875 C0.92132812 9.08855469 0.71765625 9.98960938 0.5078125 10.91796875 C0.25644531 11.94857422 0.25644531 11.94857422 0 13 C-0.33 13 -0.66 13 -1 13 C-1 10.36 -1 7.72 -1 5 C-1.66 4.67 -2.32 4.34 -3 4 C-2.01 2.68 -1.02 1.36 0 0 Z " fill="#814899" transform="translate(710,60)"/>
<path d="M0 0 C2.31 0.33 4.62 0.66 7 1 C7 1.99 7 2.98 7 4 C4.03 3.67 1.06 3.34 -2 3 C-1.34 2.01 -0.68 1.02 0 0 Z " fill="#72378E" transform="translate(737,59)"/>
<path d="M0 0 C0 1.32 0 2.64 0 4 C-2.64 4 -5.28 4 -8 4 C-2.7826087 0 -2.7826087 0 0 0 Z " fill="#FCF5EB" transform="translate(209,245)"/>
<path d="M0 0 C0.99 0.33 1.98 0.66 3 1 C0.36 3.64 -2.28 6.28 -5 9 C-5.66 8.67 -6.32 8.34 -7 8 C-4.69 5.36 -2.38 2.72 0 0 Z " fill="#651B82" transform="translate(546,180)"/>
<path d="M0 0 C3 3.875 3 3.875 3 5 C5.97 5.495 5.97 5.495 9 6 C9 6.33 9 6.66 9 7 C2.58131488 7.3633218 2.58131488 7.3633218 0 5.75 C-1 4 -1 4 -0.6875 1.8125 C-0.460625 1.214375 -0.23375 0.61625 0 0 Z " fill="#89589F" transform="translate(631,75)"/>
<path d="M0 0 C1.65 0 3.3 0 5 0 C5 1.65 5 3.3 5 5 C4.34 5 3.68 5 3 5 C3 4.34 3 3.68 3 3 C2.01 3 1.02 3 0 3 C0 2.01 0 1.02 0 0 Z " fill="#5B177E" transform="translate(424,59)"/>
<path d="M0 0 C1.65 0 3.3 0 5 0 C4.67 1.32 4.34 2.64 4 4 C2.68 3.67 1.36 3.34 0 3 C0 2.01 0 1.02 0 0 Z " fill="#7E4397" transform="translate(924,78)"/>
<path d="M0 0 C2.91517292 1.07401108 4.77810176 1.77810176 7 4 C4.69 4 2.38 4 0 4 C0 2.68 0 1.36 0 0 Z " fill="#FDF8EF" transform="translate(88,245)"/>
<path d="M0 0 C0.86625 0.3403125 0.86625 0.3403125 1.75 0.6875 C0.574375 0.7803125 0.574375 0.7803125 -0.625 0.875 C-1.49125 1.143125 -2.3575 1.41125 -3.25 1.6875 C-4.62466625 4.16386012 -4.62466625 4.16386012 -5.25 6.6875 C-5.58 5.3675 -5.91 4.0475 -6.25 2.6875 C-2.80384615 -0.38942308 -2.80384615 -0.38942308 0 0 Z " fill="#904259" transform="translate(170.25,203.3125)"/>
<path d="M0 0 C0.66 0.33 1.32 0.66 2 1 C-0.475 4.465 -0.475 4.465 -3 8 C-3.33 6.68 -3.66 5.36 -4 4 C-2.0625 1.75 -2.0625 1.75 0 0 Z " fill="#7E2F64" transform="translate(116,119)"/>
<path d="M0 0 C0 1.65 0 3.3 0 5 C-1.32 5 -2.64 5 -4 5 C-4 3.68 -4 2.36 -4 1 C-1 0 -1 0 0 0 Z " fill="#6A2687" transform="translate(670,74)"/>
<path d="M0 0 C0.99 0.33 1.98 0.66 3 1 C2.67 2.65 2.34 4.3 2 6 C1.01 6.33 0.02 6.66 -1 7 C-0.67 4.69 -0.34 2.38 0 0 Z " fill="#73348E" transform="translate(423,61)"/>
<path d="M0 0 C-0.33 1.32 -0.66 2.64 -1 4 C-1.66 3.34 -2.32 2.68 -3 2 C-4.98821313 1.60235737 -6.98944339 1.26224651 -9 1 C-5.64919071 -1.10976881 -3.77897651 -1.0497157 0 0 Z " fill="#672285" transform="translate(458,60)"/>
</svg>
